<svg width="18" height="20" viewBox="0 0 18 20" fill="none" xmlns="http://www.w3.org/2000/svg">
<path d="M17 16.3281V10.3432C17 9.86098 16.9019 9.38376 16.7116 8.9406C16.5214 8.49745 16.243 8.09763 15.8933 7.76547L10.2249 2.38147C9.89449 2.06759 9.45617 1.89258 9.00044 1.89258C8.54472 1.89258 8.1064 2.06759 7.776 2.38147L2.10667 7.76547C1.75702 8.09763 1.47861 8.49745 1.28836 8.9406C1.09811 9.38376 0.999999 9.86098 1 10.3432V16.3281C1 16.7996 1.1873 17.2518 1.5207 17.5852C1.8541 17.9186 2.30628 18.1059 2.77778 18.1059H15.2222C15.6937 18.1059 16.1459 17.9186 16.4793 17.5852C16.8127 17.2518 17 16.7996 17 16.3281Z" stroke="white" stroke-width="2" stroke-linecap="round" stroke-linejoin="round"/>
</svg>
