<svg width="21" height="20" viewBox="0 0 21 20" fill="none" xmlns="http://www.w3.org/2000/svg">
<path d="M10.5 0C13.2848 0 15.9555 1.05357 17.9246 2.92893C19.8938 4.8043 21 7.34784 21 10C21 12.6522 19.8938 15.1957 17.9246 17.0711C15.9555 18.9464 13.2848 20 10.5 20C7.71523 20 5.04451 18.9464 3.07538 17.0711C1.10625 15.1957 0 12.6522 0 10C0 7.34784 1.10625 4.8043 3.07538 2.92893C5.04451 1.05357 7.71523 0 10.5 0ZM11.0565 4.27429C9.8355 4.27429 8.8785 4.60429 8.169 5.26429C7.443 5.92429 7.0965 6.83571 7.0965 7.99857H8.9775C8.9775 7.33857 9.1095 6.82 9.39 6.45857C9.7035 6.01857 10.215 5.81429 10.941 5.81429C11.502 5.81429 11.9475 5.95571 12.261 6.25429C12.558 6.55286 12.723 6.96143 12.723 7.48C12.723 7.87286 12.5745 8.25 12.2775 8.59571L12.0795 8.81571C11.007 9.72714 10.3635 10.3871 10.149 10.8114C9.918 11.2357 9.819 11.7543 9.819 12.3514V12.5714H11.7165V12.3514C11.7165 11.9743 11.799 11.6443 11.964 11.33C12.1125 11.0471 12.327 10.78 12.624 10.5443C13.416 9.88428 13.8945 9.46 14.043 9.30286C14.439 8.8 14.6535 8.15571 14.6535 7.37C14.6535 6.41143 14.3235 5.65714 13.6635 5.10714C13.0035 4.54143 12.129 4.27429 11.0565 4.27429ZM10.7595 13.3414C10.4231 13.3328 10.0967 13.4514 9.852 13.6714C9.73116 13.7798 9.6362 13.9117 9.57357 14.0581C9.51094 14.2045 9.4821 14.362 9.489 14.52C9.489 14.8657 9.6045 15.1486 9.852 15.3686C10.0949 15.5931 10.421 15.7173 10.7595 15.7143C11.1225 15.7143 11.4195 15.6043 11.667 15.3843C11.7904 15.2737 11.888 15.1395 11.9533 14.9906C12.0187 14.8417 12.0505 14.6814 12.0465 14.52C12.0497 14.3625 12.0191 14.206 11.9567 14.0601C11.8943 13.9142 11.8013 13.782 11.6835 13.6714C11.4324 13.451 11.1009 13.3326 10.7595 13.3414Z" fill="white"/>
</svg>
