<svg width="37" height="38" viewBox="0 0 37 38" fill="none" xmlns="http://www.w3.org/2000/svg">
<path fill-rule="evenodd" clip-rule="evenodd" d="M9.63509 8.97997C9.63498 7.94957 9.95256 6.94418 10.5446 6.10081C11.1366 5.25744 11.9742 4.6171 12.9433 4.26704C13.9124 3.91697 14.9659 3.87422 15.9602 4.14459C16.9545 4.41496 17.8413 4.98531 18.4997 5.77793C19.338 4.75811 20.545 4.11036 21.8582 3.97546C23.1715 3.84056 24.4849 4.22941 25.513 5.0575C26.5412 5.88559 27.201 7.08599 27.349 8.39783C27.497 9.70967 27.1214 11.0269 26.3036 12.0633H27.7497C28.2558 12.0633 28.757 12.163 29.2246 12.3567C29.6922 12.5504 30.1171 12.8343 30.475 13.1922C30.8329 13.5501 31.1168 13.9749 31.3105 14.4425C31.5041 14.9102 31.6038 15.4113 31.6038 15.9175V17.8446C31.6038 18.1512 31.482 18.4453 31.2652 18.6622C31.0483 18.879 30.7542 19.0008 30.4476 19.0008H20.1184C20.0577 19.0008 19.9975 18.9888 19.9414 18.9656C19.8853 18.9424 19.8343 18.9083 19.7914 18.8653C19.7484 18.8224 19.7144 18.7714 19.6911 18.7153C19.6679 18.6592 19.6559 18.599 19.6559 18.5383V13.2041C19.2208 12.9242 18.8309 12.5795 18.4997 12.182C18.1684 12.579 17.7785 12.9231 17.3434 13.2026V18.5383C17.3434 18.661 17.2947 18.7786 17.208 18.8653C17.1212 18.9521 17.0036 19.0008 16.8809 19.0008H6.55176C6.2451 19.0008 5.951 18.879 5.73417 18.6622C5.51733 18.4453 5.39551 18.1512 5.39551 17.8446V15.9175C5.39551 15.4113 5.4952 14.9102 5.68889 14.4425C5.88258 13.9749 6.16647 13.5501 6.52437 13.1922C6.88226 12.8343 7.30714 12.5504 7.77475 12.3567C8.24236 12.163 8.74354 12.0633 9.24967 12.0633H10.6958C10.0073 11.1831 9.63379 10.0975 9.63509 8.97997ZM17.3434 8.97997C17.3434 8.26444 17.0592 7.57822 16.5532 7.07226C16.0473 6.5663 15.361 6.28206 14.6455 6.28206C13.93 6.28206 13.2437 6.5663 12.7378 7.07226C12.2318 7.57822 11.9476 8.26444 11.9476 8.97997C11.9476 9.69551 12.2318 10.3817 12.7378 10.8877C13.2437 11.3936 13.93 11.6779 14.6455 11.6779C15.361 11.6779 16.0473 11.3936 16.5532 10.8877C17.0592 10.3817 17.3434 9.69551 17.3434 8.97997ZM19.6559 8.97997C19.6559 9.33427 19.7257 9.6851 19.8613 10.0124C19.9969 10.3397 20.1956 10.6372 20.4461 10.8877C20.6966 11.1382 20.9941 11.3369 21.3214 11.4725C21.6487 11.6081 21.9995 11.6779 22.3538 11.6779C22.7081 11.6779 23.059 11.6081 23.3863 11.4725C23.7136 11.3369 24.011 11.1382 24.2616 10.8877C24.5121 10.6372 24.7108 10.3397 24.8464 10.0124C24.982 9.6851 25.0518 9.33427 25.0518 8.97997C25.0518 8.26444 24.7675 7.57822 24.2616 7.07226C23.7556 6.5663 23.0694 6.28206 22.3538 6.28206C21.6383 6.28206 20.9521 6.5663 20.4461 7.07226C19.9402 7.57822 19.6559 8.26444 19.6559 8.97997Z" fill="white"/>
<path d="M17.3441 21.5445C17.3441 21.4219 17.2954 21.3042 17.2087 21.2175C17.1219 21.1308 17.0043 21.082 16.8816 21.082H8.70924C8.40635 21.0815 8.11308 21.1884 7.8816 21.3837C7.65011 21.5791 7.49544 21.8502 7.44508 22.1489C7.10294 24.1467 7.10294 26.1882 7.44508 28.186L7.79041 30.2041C7.9043 30.8651 8.22963 31.4714 8.71751 31.9317C9.20539 32.3921 9.82949 32.6817 10.496 32.7571L12.1379 32.9405C13.7135 33.1163 15.2916 33.2268 16.8724 33.272C16.9337 33.2732 16.9948 33.2622 17.0518 33.2396C17.1089 33.217 17.1609 33.1833 17.2049 33.1404C17.2488 33.0975 17.2837 33.0463 17.3076 32.9897C17.3315 32.9332 17.3439 32.8724 17.3441 32.811V21.5445ZM20.1284 33.272C20.067 33.2732 20.006 33.2622 19.9489 33.2396C19.8918 33.217 19.8398 33.1833 19.7959 33.1404C19.752 33.0975 19.717 33.0463 19.6931 32.9897C19.6692 32.9332 19.6568 32.8724 19.6566 32.811V21.5445C19.6566 21.4219 19.7053 21.3042 19.7921 21.2175C19.8788 21.1308 19.9965 21.082 20.1191 21.082H28.2915C28.9174 21.082 29.4508 21.5322 29.5557 22.1489C29.8994 24.1469 29.8994 26.188 29.5557 28.186L29.2119 30.2041C29.0979 30.8654 28.7723 31.4718 28.2842 31.9322C27.796 32.3926 27.1715 32.682 26.5047 32.7571L24.8628 32.9405C23.29 33.1167 21.7104 33.2272 20.1284 33.272Z" fill="white"/>
</svg>
