<svg width="24" height="23" viewBox="0 0 24 23" fill="none" xmlns="http://www.w3.org/2000/svg">
<rect x="0.000976562" width="24" height="23.0009" rx="5" fill="#13A73C"/>
<path d="M16.9976 5.25186C16.7679 5.12425 16.5154 5.04312 16.2545 5.0131C15.9935 4.98308 15.7292 5.00477 15.4766 5.07693C15.224 5.14908 14.9881 5.27029 14.7824 5.43362C14.5766 5.59696 14.4051 5.79922 14.2776 6.02886L10.5646 12.7109L8.43955 10.5859C8.25506 10.3948 8.03437 10.2425 7.79036 10.1377C7.54635 10.0328 7.28391 9.97767 7.01836 9.97536C6.7528 9.97305 6.48944 10.0237 6.24364 10.1242C5.99785 10.2248 5.77455 10.3733 5.58676 10.5611C5.39898 10.7489 5.25047 10.9722 5.14991 11.218C5.04935 11.4637 4.99874 11.7271 5.00105 11.9927C5.00336 12.2582 5.05853 12.5207 5.16335 12.7647C5.26817 13.0087 5.42053 13.2294 5.61155 13.4139L9.61155 17.4139C9.98955 17.7929 10.4996 18.0009 11.0256 18.0009L11.3026 17.9809C11.6091 17.938 11.9015 17.8245 12.1568 17.6494C12.412 17.4744 12.6232 17.2424 12.7736 16.9719L17.7736 7.97186C17.9012 7.74231 17.9824 7.48987 18.0125 7.22894C18.0426 6.96801 18.021 6.70372 17.9489 6.45114C17.8769 6.19856 17.7557 5.96265 17.5925 5.75688C17.4293 5.5511 17.2271 5.3795 16.9976 5.25186Z" fill="white"/>
</svg>
