<svg fill="none" xmlns="http://www.w3.org/2000/svg">
    <defs>
        <g id="email">
            <path
                d="M19 10.0002C19 8.11964 18.411 6.28634 17.3157 4.75775C16.2203 3.22916 14.6736 2.08208 12.8929 1.47762C11.1122 0.873149 9.18685 0.841662 7.3873 1.38758C5.58776 1.93349 4.00442 3.02939 2.85967 4.52134C1.71492 6.01329 1.06627 7.82635 1.00481 9.70587C0.943352 11.5854 1.47218 13.437 2.51702 15.0005C3.56187 16.5641 5.07023 17.761 6.83027 18.4233C8.5903 19.0857 10.5136 19.18 12.33 18.6932"
                stroke-width="1" />
            <path
                d="M10 14C12.2091 14 14 12.2091 14 10C14 7.79086 12.2091 6 10 6C7.79086 6 6 7.79086 6 10C6 12.2091 7.79086 14 10 14Z" stroke-width="1" />
            <path
                d="M14 7V11.5C14 12.163 14.2634 12.7989 14.7322 13.2678C15.2011 13.7366 15.837 14 16.5 14C17.163 14 17.7989 13.7366 18.2678 13.2678C18.7366 12.7989 19 12.163 19 11.5V10" stroke-width="1" />
        </g>

    </defs>
</svg>